<?xml version="1.0" encoding="UTF-8" standalone="no"?>
<!-- Created with Inkscape (http://www.inkscape.org/) -->

<svg
   width="274"
   height="44"
   viewBox="0 0 72.495837 11.641667"
   version="1.1"
   id="svg5"
   sodipodi:docname="title template.svg"
   inkscape:version="1.2.1 (9c6d41e410, 2022-07-14)"
   xmlns:inkscape="http://www.inkscape.org/namespaces/inkscape"
   xmlns:sodipodi="http://sodipodi.sourceforge.net/DTD/sodipodi-0.dtd"
   xmlns="http://www.w3.org/2000/svg"
   xmlns:svg="http://www.w3.org/2000/svg">
  <sodipodi:namedview
     id="namedview7"
     pagecolor="#ffffff"
     bordercolor="#000000"
     borderopacity="0.25"
     inkscape:showpageshadow="2"
     inkscape:pageopacity="0.0"
     inkscape:pagecheckerboard="0"
     inkscape:deskcolor="#d1d1d1"
     inkscape:document-units="mm"
     showgrid="false"
     inkscape:zoom="5.1754899"
     inkscape:cx="96.319384"
     inkscape:cy="25.891269"
     inkscape:window-width="2560"
     inkscape:window-height="1371"
     inkscape:window-x="0"
     inkscape:window-y="32"
     inkscape:window-maximized="1"
     inkscape:current-layer="layer1" />
  <defs
     id="defs2" />
  <g
     inkscape:label="Layer 1"
     inkscape:groupmode="layer"
     id="layer1">
    <rect
       style="opacity:0.2;fill:#ff0000;stroke-width:3.50023"
       id="rect240"
       width="41.010418"
       height="11.641666"
       x="0"
       y="0" />
    <rect
       style="opacity:0.2;fill:#66ff00;stroke-width:3.50023"
       id="rect348"
       width="31.485416"
       height="11.641666"
       x="41.010418"
       y="0" />
    <path
       id="rect10890"
       style="fill:#22002b;stroke-width:1.75309"
       d="m 16.695506,0 h 39.104988 c 0.25193,0 0.491591,0.05070556 0.709361,0.14250809 0.217771,0.0918025 0.413657,0.22470442 0.578046,0.38909714 0.164392,0.16439268 0.297296,0.36027854 0.3891,0.57804667 0.0918,0.2177705 0.142505,0.4574255 0.142505,0.709359 v 8.0036472 c 0,1.0077319 -0.811281,1.8190089 -1.819012,1.8190089 H 16.695506 c -0.503867,0 -0.958619,-0.202818 -1.287407,-0.531605 -0.328784,-0.328786 -0.531605,-0.783537 -0.531605,-1.2874039 V 1.8190109 C 14.876494,0.81127928 15.687775,0 16.695506,0 Z"
       sodipodi:nodetypes="sssssssssssss" />
    <g
       id="g10868"
       transform="matrix(0.61875006,0,0,0.61875006,69.321029,1.7280594)">
      <path
         sodipodi:type="star"
         style="opacity:1;fill:#440055;stroke-width:13.2292"
         id="path896"
         inkscape:flatsided="true"
         sodipodi:sides="6"
         sodipodi:cx="16.933332"
         sodipodi:cy="0"
         sodipodi:r1="5.0565767"
         sodipodi:r2="4.3791237"
         sodipodi:arg1="1.5707963"
         sodipodi:arg2="2.0943951"
         inkscape:rounded="0"
         inkscape:randomized="0"
         d="m 16.933333,5.0565767 -4.379124,-2.5282882 -1e-6,-5.0565767 4.379124,-2.5282885 4.379124,2.5282882 0,5.0565767 z"
         transform="matrix(1.3081149,0,0,1.3081149,-93.539346,6.6145829)" />
      <path
         style="opacity:1;fill:#d42aff;stroke-width:13.2292"
         d="M -77.116999,3.3072916 -71.388602,0 l 1.909465,3.3072918 -1.909465,3.3072907 z"
         id="path1274"
         sodipodi:nodetypes="ccccc" />
      <path
         style="opacity:1;fill:#cc00ff;stroke-width:13.2292"
         d="m -77.116998,9.9218747 -1e-6,-6.6145831 3.818931,2e-7 1.909466,3.3072907 z"
         id="path1164"
         sodipodi:nodetypes="ccccc" />
      <path
         style="opacity:1;fill:#aa00d4;stroke-width:13.2292"
         d="m -77.116998,9.9218757 5.728397,3.3072913 -1e-6,-6.6145839 h -3.818931 z"
         id="path1330"
         sodipodi:nodetypes="ccccc" />
      <path
         style="opacity:1;fill:#8800aa;stroke-width:13.2292"
         d="m -71.388601,13.229166 -1.909466,-3.3072913 1.909465,-3.3072922 5.728398,3.3072922 z"
         id="path1332"
         sodipodi:nodetypes="ccccc" />
      <path
         style="opacity:1;fill:#660080;stroke-width:13.2292"
         d="m -71.388602,6.6145825 3.818932,6e-7 1.909465,-3.3072923 1e-6,6.6145839 h -3.818932 z"
         id="path1388"
         sodipodi:nodetypes="cccccc" />
    </g>
    <text
       xml:space="preserve"
       style="font-weight:bold;font-size:5.82083px;font-family:Inter;-inkscape-font-specification:'Inter Bold';fill:#22002b;fill-opacity:1;stroke-width:2.27377"
       x="30.127331"
       y="7.9364691"
       id="text10948"><tspan
         sodipodi:role="line"
         id="tspan10946"
         style="font-style:normal;font-variant:normal;font-weight:800;font-stretch:normal;font-size:5.82083px;font-family:inter;-inkscape-font-specification:'inter Ultra-Bold';fill:#ffffff;stroke-width:2.27377"
         x="30.127331"
         y="7.9364691">HexMC</tspan></text>
  </g>
</svg>
